#!OML:ASF F:\VICON\USERDATA\INSTALL\rory3\rory3.ASF
:FULLY-SPECIFIED
:DEGREES
2702
root 0.0674898 17.2636 0.965133 6.06662 5.57658 3.35183
lowerback -0.583363 -0.933422 1.92028
upperback -4.72454 -0.991158 5.52393
thorax -4.50049 -0.441673 4.69978
lowerneck -12.6795 -11.7252 -17.6294
upperneck 19.3373 -18.7345 24.2396
head 12.8749 -7.68714 9.07616
rclavicle -7.35503e-015 6.04305e-014
rhumerus -41.008 45.2305 -100.842
rradius 78.8162
rwrist -3.55115
rhand -3.9915 17.1335
rfingers 7.12502
rthumb 21.7621 -11.6631
lclavicle -7.35503e-015 6.04305e-014
lhumerus -36.0015 -82.8481 60.3367
lradius 69.54
lwrist 10.6837
lhand -1.47929 18.0743
lfingers 7.12502
lthumb 24.1727 46.5711
rfemur -7.04257 7.82591 15.3984
rtibia 21.7582
rfoot -18.4532 -14.7915
rtoes -12.9196
lfemur -12.6939 -11.6267 -19.986
ltibia 25.9257
lfoot -14.7728 0.943675
ltoes -17.0613
2703
root 0.076425 17.2529 0.968188 6.00474 5.4078 3.25926
lowerback -0.661193 -0.902549 2.03658
upperback -4.70821 -0.954387 5.48241
thorax -4.44386 -0.429403 4.58649
lowerneck -12.4998 -11.7371 -17.5648
upperneck 19.1863 -18.7188 24.1158
head 12.7447 -7.70246 9.00657
rclavicle 3.97569e-015 -7.63333e-014
rhumerus -41.0703 46.0775 -101.504
rradius 78.6349
rwrist -3.43911
rhand -4.05527 17.1296
rfingers 7.12502
rthumb 21.7009 -11.6741
lclavicle 3.97569e-015 -7.63333e-014
lhumerus -32.2903 -81.9272 57.0595
lradius 69.0364
lwrist 10.2989
lhand -1.52169 18.2509
lfingers 7.12502
lthumb 24.1321 46.753
rfemur -7.22372 7.58774 15.4376
rtibia 22.1738
rfoot -18.6309 -14.4749
rtoes -13.2518
lfemur -12.7286 -11.4319 -19.9553
ltibia 26.1977
lfoot -14.9496 0.924337
ltoes -16.6539
2704
root 0.0833747 17.2371 0.968055 5.90784 5.197 3.19561
lowerback -0.62062 -0.882098 2.08495
upperback -4.71903 -0.924654 5.45285
thorax -4.4813 -0.417006 4.52836
lowerneck -12.3141 -11.7518 -17.7204
upperneck 19.145 -18.7324 24.138
head 12.7139 -7.73463 9.04475
rclavicle 1.53064e-014 -5.08889e-014
rhumerus -41.2333 46.9129 -102.218
rradius 78.4282
rwrist -3.3157
rhand -4.07425 17.1403
rfingers 7.12502
rthumb 21.6827 -11.6655
lclavicle 1.53064e-014 -5.08889e-014
lhumerus -30.2768 -80.6413 55.5112
lradius 68.5018
lwrist 9.68834
lhand -1.58983 18.211
lfingers 7.12502
lthumb 24.0667 46.7219
rfemur -7.41154 7.39891 15.4515
rtibia 22.6492
rfoot -18.8219 -14.1989
rtoes -13.265
lfemur -12.7665 -11.1154 -19.9609
ltibia 26.5307
lfoot -15.1448 0.911994
ltoes -17.4306
2705
root 0.0910962 17.2211 0.964865 5.78353 5.01114 3.12306
lowerback -0.584388 -0.877138 2.14796
upperback -4.66138 -0.919508 5.42678
thorax -4.44294 -0.418192 4.4642
lowerneck -12.2767 -11.7767 -17.7105
upperneck 19.1004 -18.7229 23.988
head 12.6605 -7.74594 8.97576
rclavicle -1.23246e-014 -6.36111e-015
rhumerus -41.2552 47.6254 -102.763
rradius 78.1802
rwrist -3.17994
rhand -4.13484 17.4634
rfingers 7.12502
rthumb 21.6245 -11.3491
lclavicle -1.23246e-014 -6.36111e-015
lhumerus -28.2373 -79.0665 54.0926
lradius 67.8494
lwrist 9.32799
lhand -1.93069 18.0594
lfingers 7.12502
lthumb 23.7399 46.6131
rfemur -7.6233 7.17741 15.4722
rtibia 23.1934
rfoot -19.1105 -13.8607
rtoes -13.1072
lfemur -12.8231 -10.8803 -19.9571
ltibia 26.9371
lfoot -15.397 0.946332
ltoes -17.8675
2706
root 0.0975203 17.2042 0.961296 5.72891 4.81061 2.98982
lowerback -0.619821 -0.891349 2.24955
upperback -4.63342 -0.941342 5.40552
thorax -4.39401 -0.434097 4.38335
lowerneck -12.1604 -11.7524 -17.6735
upperneck 19.0211 -18.6584 23.8727
head 12.5648 -7.73521 8.93088
rclavicle 2.8625e-014 -1.90833e-014
rhumerus -41.3442 48.2599 -103.368
rradius 77.9531
rwrist -2.98612
rhand -4.22733 17.6101
rfingers 7.12502
rthumb 21.5356 -11.2126
lclavicle 2.8625e-014 -1.90833e-014
lhumerus -27.2513 -77.2858 53.732
lradius 67.2552
lwrist 9.10527
lhand -2.23946 17.95
lfingers 7.12502
lthumb 23.4437 46.5418
rfemur -7.98136 6.87757 15.5503
rtibia 23.8304
rfoot -19.4343 -13.4051
rtoes -13.366
lfemur -12.9706 -10.6296 -19.8507
ltibia 27.359
lfoot -15.7576 0.788105
ltoes -17.0002
